<svg width="60" height="13" viewBox="0 0 60 13" fill="none" xmlns="http://www.w3.org/2000/svg">
<mask id="mask0" mask-type="alpha" maskUnits="userSpaceOnUse" x="0" y="0" width="60" height="10">
<path d="M7.82812 1.06641L4.60547 5.56641L4.45312 9.23438H1.67578L1.74609 5.58984L0.0703125 1.24219L3.05859 0.867188L3.52734 3.39844L5.01562 0.867188L7.82812 1.06641ZM14.3145 4.51172C14.3145 4.86719 14.2734 5.21094 14.1914 5.54297C14.1094 5.87109 13.9902 6.17969 13.834 6.46875C13.6816 6.75781 13.4941 7.02344 13.2715 7.26562C13.0527 7.50391 12.8047 7.70898 12.5273 7.88086C12.2539 8.05273 11.9551 8.1875 11.6309 8.28516C11.3066 8.37891 10.9629 8.42578 10.5996 8.42578C10.248 8.42578 9.91211 8.38086 9.5918 8.29102C9.27539 8.20117 8.97852 8.07617 8.70117 7.91602C8.42383 7.75195 8.17188 7.55664 7.94531 7.33008C7.72266 7.09961 7.53125 6.8457 7.37109 6.56836C7.21484 6.28711 7.0918 5.98633 7.00195 5.66602C6.91602 5.3457 6.87305 5.01172 6.87305 4.66406C6.87305 4.32422 6.91406 3.99219 6.99609 3.66797C7.07812 3.33984 7.19531 3.03125 7.34766 2.74219C7.50391 2.45313 7.69141 2.1875 7.91016 1.94531C8.12891 1.70313 8.37305 1.49414 8.64258 1.31836C8.91602 1.14258 9.21094 1.00586 9.52734 0.908203C9.84375 0.810547 10.1777 0.761719 10.5293 0.761719C11.0957 0.761719 11.6113 0.849609 12.0762 1.02539C12.5449 1.20117 12.9434 1.45312 13.2715 1.78125C13.6035 2.10547 13.8594 2.5 14.0391 2.96484C14.2227 3.42578 14.3145 3.94141 14.3145 4.51172ZM11.7129 4.66406C11.7129 4.49609 11.6875 4.33398 11.6367 4.17773C11.5898 4.01758 11.5195 3.87695 11.4258 3.75586C11.332 3.63086 11.2148 3.53125 11.0742 3.45703C10.9375 3.37891 10.7793 3.33984 10.5996 3.33984C10.416 3.33984 10.252 3.37305 10.1074 3.43945C9.96289 3.50586 9.83789 3.59766 9.73242 3.71484C9.63086 3.82812 9.55273 3.96289 9.49805 4.11914C9.44336 4.27148 9.41602 4.43359 9.41602 4.60547C9.41602 4.76953 9.43945 4.93359 9.48633 5.09766C9.5332 5.26172 9.60352 5.41016 9.69727 5.54297C9.79102 5.67578 9.90625 5.7832 10.043 5.86523C10.1836 5.94727 10.3457 5.98828 10.5293 5.98828C10.7129 5.98828 10.877 5.95312 11.0215 5.88281C11.1699 5.80859 11.2949 5.71094 11.3965 5.58984C11.498 5.46484 11.5762 5.32227 11.6309 5.16211C11.6855 5.00195 11.7129 4.83594 11.7129 4.66406ZM21.709 0.75C21.5332 2.125 21.3828 3.49414 21.2578 4.85742C21.1328 6.2168 21.0137 7.58594 20.9004 8.96484L18.498 9.14062L18.6035 8.23828C18.5254 8.32812 18.4336 8.40625 18.3281 8.47266C18.2266 8.53906 18.1172 8.59375 18 8.63672C17.8828 8.67578 17.7617 8.70508 17.6367 8.72461C17.5117 8.74023 17.3926 8.74609 17.2793 8.74219C17.0137 8.73828 16.7637 8.6875 16.5293 8.58984C16.2949 8.48828 16.0801 8.35547 15.8848 8.19141C15.6895 8.02344 15.5137 7.83008 15.3574 7.61133C15.2012 7.38867 15.0684 7.15625 14.959 6.91406C14.8535 6.66797 14.7715 6.41797 14.7129 6.16406C14.6582 5.91016 14.6309 5.66406 14.6309 5.42578C14.6309 5.07422 14.6367 4.71094 14.6484 4.33594C14.6641 3.95703 14.6895 3.57812 14.7246 3.19922C14.7598 2.82031 14.8047 2.44531 14.8594 2.07422C14.918 1.70313 14.9902 1.34766 15.0762 1.00781C15.5527 1.03125 16.0312 1.05273 16.5117 1.07227C16.9922 1.0918 17.4707 1.09766 17.9473 1.08984C17.8574 1.42969 17.7676 1.77148 17.6777 2.11523C17.5918 2.45508 17.5137 2.79883 17.4434 3.14648C17.373 3.49023 17.3164 3.83594 17.2734 4.18359C17.2305 4.53125 17.209 4.88281 17.209 5.23828C17.209 5.32031 17.2129 5.4375 17.2207 5.58984C17.2285 5.74219 17.248 5.89258 17.2793 6.04102C17.3145 6.18945 17.3652 6.32031 17.4316 6.43359C17.502 6.54297 17.5996 6.59766 17.7246 6.59766C17.873 6.59766 18.0059 6.53516 18.123 6.41016C18.2402 6.28125 18.3438 6.10938 18.4336 5.89453C18.5234 5.67969 18.5996 5.43164 18.6621 5.15039C18.7285 4.86914 18.7832 4.57617 18.8262 4.27148C18.873 3.96289 18.9102 3.65234 18.9375 3.33984C18.9648 3.02734 18.9844 2.73438 18.9961 2.46094C19.0117 2.18359 19.0215 1.93555 19.0254 1.7168C19.0332 1.49805 19.0371 1.32813 19.0371 1.20703C19.0371 1.12891 19.0352 1.05273 19.0312 0.978516C19.0273 0.904297 19.0215 0.828125 19.0137 0.75C19.2676 0.757812 19.5195 0.763672 19.7695 0.767578C20.0195 0.771484 20.2715 0.773438 20.5254 0.773438C20.7207 0.773438 20.916 0.773438 21.1113 0.773438C21.3105 0.769531 21.5098 0.761719 21.709 0.75ZM28.9277 3.35156C28.9277 3.65625 28.9004 3.93359 28.8457 4.18359C28.7949 4.42969 28.7129 4.65625 28.5996 4.86328C28.4863 5.07031 28.3398 5.26172 28.1602 5.4375C27.9805 5.61328 27.7637 5.78125 27.5098 5.94141L28.9043 8.42578L26.2676 8.94141L25.3652 6.44531L24.6387 6.46875L24.5332 8.90625H22.0137C22.0332 8.01562 22.0508 7.12891 22.0664 6.24609C22.0859 5.36328 22.1074 4.47656 22.1309 3.58594C22.1387 3.13672 22.1465 2.69141 22.1543 2.25C22.1621 1.80859 22.1777 1.36328 22.2012 0.914062C22.4746 0.8125 22.7441 0.728516 23.0098 0.662109C23.2754 0.595703 23.541 0.544922 23.8066 0.509766C24.0762 0.470703 24.3477 0.445312 24.6211 0.433594C24.8984 0.417969 25.1816 0.410156 25.4707 0.410156C25.916 0.410156 26.3457 0.472656 26.7598 0.597656C27.1777 0.71875 27.5469 0.902344 27.8672 1.14844C28.1875 1.39453 28.4434 1.70117 28.6348 2.06836C28.8301 2.43555 28.9277 2.86328 28.9277 3.35156ZM26.3027 3.53906C26.3027 3.375 26.2793 3.22461 26.2324 3.08789C26.1895 2.95117 26.123 2.83398 26.0332 2.73633C25.9473 2.63477 25.8379 2.55664 25.7051 2.50195C25.5762 2.44336 25.4238 2.41406 25.248 2.41406C25.1699 2.41406 25.0938 2.41992 25.0195 2.43164C24.9453 2.43945 24.873 2.45313 24.8027 2.47266L24.709 4.65234H24.8496C25.0176 4.65234 25.1875 4.63086 25.3594 4.58789C25.5352 4.54492 25.6914 4.47852 25.8281 4.38867C25.9688 4.29883 26.082 4.18359 26.168 4.04297C26.2578 3.90234 26.3027 3.73438 26.3027 3.53906ZM36.832 5.66016L36.5859 8.26172L31.6523 8.64844C31.6758 7.28516 31.7012 5.92969 31.7285 4.58203C31.7598 3.23438 31.7969 1.87891 31.8398 0.515625H34.8867C34.7969 1.37109 34.7109 2.22656 34.6289 3.08203C34.5469 3.93359 34.4883 4.79297 34.4531 5.66016C34.6367 5.66797 34.8184 5.67188 34.998 5.67188C35.1777 5.67188 35.3594 5.67188 35.543 5.67188C35.7617 5.67188 35.9766 5.66992 36.1875 5.66602C36.3984 5.66211 36.6133 5.66016 36.832 5.66016ZM44.3496 4.51172C44.3496 4.86719 44.3086 5.21094 44.2266 5.54297C44.1445 5.87109 44.0254 6.17969 43.8691 6.46875C43.7168 6.75781 43.5293 7.02344 43.3066 7.26562C43.0879 7.50391 42.8398 7.70898 42.5625 7.88086C42.2891 8.05273 41.9902 8.1875 41.666 8.28516C41.3418 8.37891 40.998 8.42578 40.6348 8.42578C40.2832 8.42578 39.9473 8.38086 39.627 8.29102C39.3105 8.20117 39.0137 8.07617 38.7363 7.91602C38.459 7.75195 38.207 7.55664 37.9805 7.33008C37.7578 7.09961 37.5664 6.8457 37.4062 6.56836C37.25 6.28711 37.127 5.98633 37.0371 5.66602C36.9512 5.3457 36.9082 5.01172 36.9082 4.66406C36.9082 4.32422 36.9492 3.99219 37.0312 3.66797C37.1133 3.33984 37.2305 3.03125 37.3828 2.74219C37.5391 2.45313 37.7266 2.1875 37.9453 1.94531C38.1641 1.70313 38.4082 1.49414 38.6777 1.31836C38.9512 1.14258 39.2461 1.00586 39.5625 0.908203C39.8789 0.810547 40.2129 0.761719 40.5645 0.761719C41.1309 0.761719 41.6465 0.849609 42.1113 1.02539C42.5801 1.20117 42.9785 1.45312 43.3066 1.78125C43.6387 2.10547 43.8945 2.5 44.0742 2.96484C44.2578 3.42578 44.3496 3.94141 44.3496 4.51172ZM41.748 4.66406C41.748 4.49609 41.7227 4.33398 41.6719 4.17773C41.625 4.01758 41.5547 3.87695 41.4609 3.75586C41.3672 3.63086 41.25 3.53125 41.1094 3.45703C40.9727 3.37891 40.8145 3.33984 40.6348 3.33984C40.4512 3.33984 40.2871 3.37305 40.1426 3.43945C39.998 3.50586 39.873 3.59766 39.7676 3.71484C39.666 3.82812 39.5879 3.96289 39.5332 4.11914C39.4785 4.27148 39.4512 4.43359 39.4512 4.60547C39.4512 4.76953 39.4746 4.93359 39.5215 5.09766C39.5684 5.26172 39.6387 5.41016 39.7324 5.54297C39.8262 5.67578 39.9414 5.7832 40.0781 5.86523C40.2188 5.94727 40.3809 5.98828 40.5645 5.98828C40.748 5.98828 40.9121 5.95312 41.0566 5.88281C41.2051 5.80859 41.3301 5.71094 41.4316 5.58984C41.5332 5.46484 41.6113 5.32227 41.666 5.16211C41.7207 5.00195 41.748 4.83594 41.748 4.66406ZM51.8438 7.6875C51.6602 7.91797 51.4336 8.11914 51.1641 8.29102C50.8945 8.46289 50.6055 8.60547 50.2969 8.71875C49.9883 8.83203 49.6719 8.91797 49.3477 8.97656C49.0234 9.03125 48.7148 9.05859 48.4219 9.05859C47.8555 9.05859 47.334 8.96289 46.8574 8.77148C46.3809 8.58008 45.9688 8.31445 45.6211 7.97461C45.2773 7.63086 45.0078 7.22266 44.8125 6.75C44.6172 6.27734 44.5195 5.76172 44.5195 5.20312C44.5195 4.77734 44.5684 4.36328 44.666 3.96094C44.7637 3.55859 44.9023 3.18164 45.082 2.83008C45.2656 2.47852 45.4883 2.15625 45.75 1.86328C46.0117 1.57031 46.3086 1.31836 46.6406 1.10742C46.9727 0.896484 47.3359 0.734375 47.7305 0.621094C48.1289 0.503906 48.5508 0.445312 48.9961 0.445312C49.1641 0.445312 49.3438 0.453125 49.5352 0.46875C49.7266 0.480469 49.916 0.503906 50.1035 0.539062C50.2949 0.570312 50.4805 0.615234 50.6602 0.673828C50.8398 0.732422 51.0039 0.804687 51.1523 0.890625L50.9883 3.12891C50.7695 3.04688 50.543 2.99219 50.3086 2.96484C50.0781 2.93359 49.8516 2.91797 49.6289 2.91797C49.3164 2.91797 49.0234 2.96094 48.75 3.04688C48.4805 3.12891 48.2441 3.25195 48.041 3.41602C47.8418 3.58008 47.6836 3.78516 47.5664 4.03125C47.4492 4.27734 47.3906 4.5625 47.3906 4.88672C47.3906 5.08984 47.418 5.28711 47.4727 5.47852C47.5273 5.66602 47.6094 5.83398 47.7188 5.98242C47.832 6.12695 47.9707 6.24414 48.1348 6.33398C48.3027 6.42383 48.4961 6.46875 48.7148 6.46875C48.8633 6.46875 49.0156 6.44922 49.1719 6.41016C49.332 6.37109 49.4688 6.30469 49.582 6.21094L49.6055 5.75391L48.1992 5.73047L48.2695 3.97266C48.8516 3.95312 49.4336 3.9375 50.0156 3.92578C50.5977 3.91016 51.1836 3.89062 51.7734 3.86719L51.8438 7.6875ZM59.5371 4.51172C59.5371 4.86719 59.4961 5.21094 59.4141 5.54297C59.332 5.87109 59.2129 6.17969 59.0566 6.46875C58.9043 6.75781 58.7168 7.02344 58.4941 7.26562C58.2754 7.50391 58.0273 7.70898 57.75 7.88086C57.4766 8.05273 57.1777 8.1875 56.8535 8.28516C56.5293 8.37891 56.1855 8.42578 55.8223 8.42578C55.4707 8.42578 55.1348 8.38086 54.8145 8.29102C54.498 8.20117 54.2012 8.07617 53.9238 7.91602C53.6465 7.75195 53.3945 7.55664 53.168 7.33008C52.9453 7.09961 52.7539 6.8457 52.5938 6.56836C52.4375 6.28711 52.3145 5.98633 52.2246 5.66602C52.1387 5.3457 52.0957 5.01172 52.0957 4.66406C52.0957 4.32422 52.1367 3.99219 52.2188 3.66797C52.3008 3.33984 52.418 3.03125 52.5703 2.74219C52.7266 2.45313 52.9141 2.1875 53.1328 1.94531C53.3516 1.70313 53.5957 1.49414 53.8652 1.31836C54.1387 1.14258 54.4336 1.00586 54.75 0.908203C55.0664 0.810547 55.4004 0.761719 55.752 0.761719C56.3184 0.761719 56.834 0.849609 57.2988 1.02539C57.7676 1.20117 58.166 1.45312 58.4941 1.78125C58.8262 2.10547 59.082 2.5 59.2617 2.96484C59.4453 3.42578 59.5371 3.94141 59.5371 4.51172ZM56.9355 4.66406C56.9355 4.49609 56.9102 4.33398 56.8594 4.17773C56.8125 4.01758 56.7422 3.87695 56.6484 3.75586C56.5547 3.63086 56.4375 3.53125 56.2969 3.45703C56.1602 3.37891 56.002 3.33984 55.8223 3.33984C55.6387 3.33984 55.4746 3.37305 55.3301 3.43945C55.1855 3.50586 55.0605 3.59766 54.9551 3.71484C54.8535 3.82812 54.7754 3.96289 54.7207 4.11914C54.666 4.27148 54.6387 4.43359 54.6387 4.60547C54.6387 4.76953 54.6621 4.93359 54.709 5.09766C54.7559 5.26172 54.8262 5.41016 54.9199 5.54297C55.0137 5.67578 55.1289 5.7832 55.2656 5.86523C55.4062 5.94727 55.5684 5.98828 55.752 5.98828C55.9355 5.98828 56.0996 5.95312 56.2441 5.88281C56.3926 5.80859 56.5176 5.71094 56.6191 5.58984C56.7207 5.46484 56.7988 5.32227 56.8535 5.16211C56.9082 5.00195 56.9355 4.83594 56.9355 4.66406Z" fill="black"/>
</mask>
<g mask="url(#mask0)">
<rect x="-2" y="-3" width="63" height="17" fill="#00A3FF"/>
<rect x="-2" y="-3" width="63" height="17" fill="url(#paint0_linear)"/>
</g>
<defs>
<linearGradient id="paint0_linear" x1="-2" y1="-3" x2="58.6631" y2="20.1293" gradientUnits="userSpaceOnUse">
<stop stop-color="#00F0FF"/>
<stop offset="1" stop-color="white" stop-opacity="0"/>
</linearGradient>
</defs>
</svg>
