<?xml version="1.0" encoding="UTF-8" standalone="no"?>
<!DOCTYPE svg PUBLIC "-//W3C//DTD SVG 1.1//EN" "http://www.w3.org/Graphics/SVG/1.1/DTD/svg11.dtd">
<svg width="100%" height="100%" viewBox="0 0 519 101" version="1.1" xmlns="http://www.w3.org/2000/svg" xmlns:xlink="http://www.w3.org/1999/xlink" xml:space="preserve" xmlns:serif="http://www.serif.com/" style="fill-rule:evenodd;clip-rule:evenodd;stroke-linejoin:round;stroke-miterlimit:2;">
    <g id="Artboard1" transform="matrix(1.00739,0,0,0.804794,-26.2336,-15.5467)">
        <rect x="26.041" y="19.318" width="514.314" height="125.323" style="fill:none;"/>
        <g transform="matrix(0.992668,0,0,1.24255,-7.05144,-21.1169)">
            <g>
                <path d="M107,55.9L102.6,60.3L113.2,70.9L83,101.1L72.4,90.5L68,94.9L80.8,107.7C81.4,108.3 82.2,108.6 83,108.6C83.8,108.6 84.6,108.3 85.2,107.7L119.8,73.1C121,71.9 121,69.9 119.8,68.7L107,55.9Z" style="fill:rgb(26,26,26);fill-rule:nonzero;"/>
                <path d="M83,40.7L93.6,51.3L98,46.9L85.2,34.1C84,32.9 82,32.9 80.8,34.1L46.2,68.7C45,69.9 45,71.9 46.2,73.1L59,85.9L63.4,81.5L52.9,70.9L83,40.7Z" style="fill:rgb(26,26,26);fill-rule:nonzero;"/>
                <path d="M113.2,40.7C112,39.5 110,39.5 108.8,40.7L92.4,57.1C94.1,58.3 95.6,59.8 96.8,61.5L111,47.3L128.3,64.6L132.7,60.2L113.2,40.7Z" style="fill:rgb(26,26,26);fill-rule:nonzero;"/>
            </g>
            <path d="M83,58.3C76.1,58.3 70.4,63.9 70.4,70.9C70.4,73.2 71,75.4 72.2,77.3L55.1,94.5L37.8,77.2L33.4,81.6L52.9,101.1C53.5,101.7 54.3,102 55.1,102C55.9,102 56.7,101.7 57.3,101.1L76.7,81.7C78.6,82.8 80.8,83.5 83.1,83.5C90,83.5 95.7,77.9 95.7,70.9C95.6,64 90,58.3 83,58.3ZM83,77.2C79.5,77.2 76.7,74.4 76.7,70.9C76.7,67.4 79.5,64.6 83,64.6C86.5,64.6 89.3,67.4 89.3,70.9C89.4,74.4 86.5,77.2 83,77.2Z" style="fill:rgb(0,0,255);fill-rule:nonzero;"/>
            <path d="M143.2,111.3L143.2,108C143.2,102.3 140.4,99.5 134.7,99.5L125.8,99.5C120.1,99.5 117.3,102.3 117.3,108L117.3,124.3C117.3,130 120.1,132.8 125.8,132.8L134.7,132.8C140.4,132.8 143.2,130 143.2,124.3L143.2,121L136.8,121L136.8,124.2C136.8,126.3 136.1,127 134,127L126.4,127C124.4,127 123.6,126.2 123.6,124.2L123.6,108C123.6,106 124.4,105.2 126.4,105.2L134,105.2C136.1,105.2 136.8,105.9 136.8,108L136.8,111.2L143.2,111.2L143.2,111.3Z" style="fill:rgb(0,0,255);fill-rule:nonzero;"/>
            <path d="M169.5,99.5L159.6,99.5C153.9,99.5 151.1,102.3 151.1,108L151.1,124.3C151.1,130 153.9,132.8 159.6,132.8L169.5,132.8C175.2,132.8 178,130 178,124.3L178,108C178,102.3 175.2,99.5 169.5,99.5ZM171.6,108.1L171.6,124.3C171.6,126.4 170.9,127.1 168.8,127.1L160.3,127.1C158.3,127.1 157.5,126.3 157.5,124.3L157.5,108.1C157.5,106.1 158.3,105.3 160.3,105.3L168.8,105.3C170.9,105.3 171.6,106 171.6,108.1Z" style="fill:rgb(0,0,255);fill-rule:nonzero;"/>
            <path d="M203.6,99.2C198.2,99.2 195.6,100.9 193,103.4L193,99.5L186.6,99.5L186.6,132.9L193,132.9L193,108.2C196.1,106.1 198.4,105.2 203,105.2C206.2,105.2 206.7,106 206.7,108.1L206.7,133L213.1,133L213.1,107.9C213.2,101.9 210.2,99.2 203.6,99.2Z" style="fill:rgb(0,0,255);fill-rule:nonzero;"/>
            <path d="M247.5,111.3L247.5,108C247.5,102.3 244.7,99.5 239,99.5L230.1,99.5C224.4,99.5 221.6,102.3 221.6,108L221.6,124.3C221.6,130 224.4,132.8 230.1,132.8L239,132.8C244.7,132.8 247.5,130 247.5,124.3L247.5,121L241.1,121L241.1,124.2C241.1,126.3 240.4,127 238.3,127L230.7,127C228.7,127 227.9,126.2 227.9,124.2L227.9,108C227.9,106 228.7,105.2 230.7,105.2L238.3,105.2C240.4,105.2 241.1,105.9 241.1,108L241.1,111.2L247.5,111.2L247.5,111.3Z" style="fill:rgb(0,0,255);fill-rule:nonzero;"/>
            <path d="M273.8,99.5L264,99.5C258.3,99.5 255.5,102.3 255.5,108L255.5,124.3C255.5,130 258.3,132.8 264,132.8L273.9,132.8C279.6,132.8 282.4,130 282.4,124.3L282.4,108C282.3,102.3 279.5,99.5 273.8,99.5ZM275.9,108.1L275.9,124.3C275.9,126.4 275.2,127.1 273.1,127.1L264.6,127.1C262.6,127.1 261.8,126.3 261.8,124.3L261.8,108.1C261.8,106.1 262.6,105.3 264.6,105.3L273.1,105.3C275.2,105.3 275.9,106 275.9,108.1Z" style="fill:rgb(0,0,255);fill-rule:nonzero;"/>
            <path d="M310.9,99.5L310.9,124.2C307.9,126.2 305.5,127.2 300.9,127.2C297.7,127.2 297.1,126.4 297.1,124.3L297.1,99.5L290.7,99.5L290.7,124.6C290.7,130.5 293.6,133.2 300.2,133.2C305.6,133.2 308.2,131.5 310.8,129L310.8,132.9L317.2,132.9L317.2,99.5L310.9,99.5Z" style="fill:rgb(0,0,255);fill-rule:nonzero;"/>
            <path d="M342.2,99.5C337.8,99.5 335.2,101.3 332.7,103.7L332.7,99.5L326.3,99.5L326.3,132.9L332.7,132.9L332.7,108.7C335.3,107.1 338,105.7 341.7,105.7L345,105.7L345,99.6L342.2,99.6L342.2,99.5Z" style="fill:rgb(0,0,255);fill-rule:nonzero;"/>
            <path d="M370,113.7L360.7,112.2C358.7,111.9 358,111.5 358,108.8C358,105.6 358.9,105 360.8,105L367.5,105C369.6,105 370.3,105.8 370.3,108.2L370.3,109.9L376.5,109.9L376.5,108.4C376.5,102.3 373.8,99.5 368,99.5L360.1,99.5C354.2,99.5 351.6,102.5 351.6,109.1C351.6,111.9 352.2,113.9 353.4,115.2C354.5,116.4 356.3,117.2 359,117.7L368.3,119.2C370.2,119.5 371,119.8 371,123.1C371,126.8 370.2,127.3 368.2,127.3L360.3,127.3C358.4,127.3 357.5,126.7 357.5,123.7L357.5,121.9L351.3,121.9L351.3,123.6C351.3,129.9 354,132.9 359.8,132.9L368.9,132.9C374.9,132.9 377.4,129.9 377.4,122.8C377.4,116.3 374.6,114.5 370,113.7Z" style="fill:rgb(0,0,255);fill-rule:nonzero;"/>
            <path d="M411.7,118L411.7,108C411.7,102.3 408.9,99.5 403.2,99.5L393.8,99.5C388.1,99.5 385.3,102.3 385.3,108L385.3,124.3C385.3,130 388.1,132.8 393.8,132.8L403.2,132.8C408.9,132.8 411.7,130 411.7,124.3L411.7,121.6L405.3,121.6L405.3,124.5C405.3,126.5 404.5,127.3 402.5,127.3L394.4,127.3C392.4,127.3 391.6,126.5 391.6,124.5L391.6,118L411.7,118ZM391.6,113L391.6,107.9C391.6,105.9 392.4,105.1 394.4,105.1L402.5,105.1C404.6,105.1 405.3,105.8 405.3,107.9L405.3,113L391.6,113Z" style="fill:rgb(0,0,255);fill-rule:nonzero;"/>
            <rect x="439.4" y="88.1" width="6.4" height="44.8" style="fill:rgb(26,26,26);"/>
            <path d="M472.2,99.5L463.6,99.5C457.9,99.5 455.1,102.3 455.1,108L455.1,109.5L461.5,109.5L461.5,107.8C461.5,105.7 462.2,105 464.3,105L471.6,105C473.7,105 474.4,105.7 474.4,107.8L474.4,112.3C469.9,112.5 465.8,112.9 462.7,113.2C457.5,113.8 454.1,115.7 454.1,123.1C454.1,130.2 456.9,133 463.7,133C469.2,133 472,131.5 474.4,128.9L474.4,132.8L480.8,132.8L480.8,108C480.7,102.3 477.9,99.5 472.2,99.5ZM474.3,117L474.3,124.2C471.4,126.2 469,127.5 464.2,127.5C461.1,127.5 460.3,126.6 460.3,122.9C460.3,119.2 461.2,118.7 463.4,118.4L474.3,117Z" style="fill:rgb(26,26,26);fill-rule:nonzero;"/>
            <path d="M507,99.3C501.2,99.3 498.6,101 496,103.5L496,88.1L489.6,88.1L489.6,132.9L496,132.9L496,128.9C498.6,131.4 501.2,133.1 507,133.1C514,133.1 516.9,130.5 516.9,124.4L516.9,108C516.9,101.9 513.9,99.3 507,99.3ZM496,108.2C499.1,106.1 501.5,105.2 506.4,105.2C510,105.2 510.6,106.1 510.6,108.2L510.6,124.3C510.6,126.4 510,127.3 506.4,127.3C501.5,127.3 499.1,126.3 496,124.3L496,108.2Z" style="fill:rgb(26,26,26);fill-rule:nonzero;"/>
            <path d="M543.5,113.7L534.2,112.2C532.2,111.9 531.5,111.5 531.5,108.8C531.5,105.6 532.4,105 534.3,105L541,105C543.1,105 543.8,105.8 543.8,108.2L543.8,109.9L550,109.9L550,108.4C550,102.3 547.3,99.5 541.5,99.5L533.6,99.5C527.7,99.5 525.1,102.5 525.1,109.1C525.1,111.9 525.7,113.9 526.9,115.2C528,116.4 529.8,117.2 532.5,117.7L541.8,119.2C543.7,119.5 544.5,119.8 544.5,123.1C544.5,126.8 543.7,127.3 541.7,127.3L533.8,127.3C531.9,127.3 531,126.7 531,123.7L531,121.9L524.8,121.9L524.8,123.6C524.8,129.9 527.5,132.9 533.3,132.9L542.4,132.9C548.4,132.9 550.9,129.9 550.9,122.8C550.9,116.3 548.2,114.5 543.5,113.7Z" style="fill:rgb(26,26,26);fill-rule:nonzero;"/>
        </g>
    </g>
</svg>
